<svg width="33" height="32" viewBox="0 0 33 32" fill="none" xmlns="http://www.w3.org/2000/svg">
<path d="M22.8451 0H11.0341C10.5716 0 10.1091 0.195555 9.78896 0.515556L1.44657 8.85333C1.12639 9.17333 0.930725 9.63556 0.930725 10.0978V21.8844C0.930725 22.3644 1.12639 22.8089 1.44657 23.1467L9.77117 31.4667C10.1091 31.8044 10.5716 32 11.0341 32H22.8273C23.3075 32 23.7522 31.8044 24.0902 31.4844L32.4148 23.1644C32.5805 22.9989 32.7114 22.802 32.8 22.5853C32.8886 22.3685 32.933 22.1363 32.9306 21.9022V10.0978C32.9306 9.61778 32.735 9.17333 32.4148 8.83556L24.0902 0.515556C23.77 0.195555 23.3075 0 22.8451 0ZM16.9396 25.4222C15.6589 25.4222 14.6272 24.3911 14.6272 23.1111C14.6272 21.8311 15.6589 20.8 16.9396 20.8C18.2203 20.8 19.252 21.8311 19.252 23.1111C19.252 24.3911 18.2203 25.4222 16.9396 25.4222ZM16.9396 17.7778C15.9613 17.7778 15.1608 16.9778 15.1608 16V8.88889C15.1608 7.91111 15.9613 7.11111 16.9396 7.11111C17.9179 7.11111 18.7183 7.91111 18.7183 8.88889V16C18.7183 16.9778 17.9179 17.7778 16.9396 17.7778Z" fill="white"/>
</svg>
