<svg width="23" height="18" viewBox="0 0 23 18" fill="none" xmlns="http://www.w3.org/2000/svg">
<path d="M0.507936 8.64696C0.423448 8.72888 0.373986 8.84035 0.369936 8.95796C0.369936 8.97296 0.369935 8.98597 0.363935 9.00097C0.357935 9.01596 0.363936 9.02796 0.369936 9.04196C0.373937 9.15988 0.423386 9.27168 0.507936 9.35396L4.17694 13.023C4.27124 13.114 4.39754 13.1644 4.52864 13.1633C4.65973 13.1622 4.78514 13.1096 4.87784 13.0169C4.97055 12.9242 5.02313 12.7988 5.02427 12.6677C5.02541 12.5366 4.97501 12.4103 4.88394 12.316L2.06894 9.49996H12.8109C12.9435 9.49996 13.0707 9.44729 13.1645 9.35352C13.2583 9.25975 13.3109 9.13257 13.3109 8.99996C13.3109 8.86736 13.2583 8.74018 13.1645 8.64641C13.0707 8.55264 12.9435 8.49996 12.8109 8.49996H2.06894L4.88394 5.68396C4.97501 5.58966 5.02541 5.46336 5.02427 5.33226C5.02313 5.20117 4.97055 5.07576 4.87784 4.98306C4.78514 4.89035 4.65973 4.83777 4.52864 4.83663C4.39754 4.83549 4.27124 4.88589 4.17694 4.97696L0.507936 8.64696Z" fill="white"/>
<path d="M22.9999 15.4502C22.9902 15.7954 22.9112 16.1351 22.7677 16.4491C22.6242 16.7631 22.419 17.0451 22.1643 17.2783C21.9097 17.5115 21.6108 17.6912 21.2853 17.8066C20.9599 17.922 20.6146 17.9708 20.2699 17.9502C18.1169 17.9622 15.9639 17.9502 13.8109 17.9502C13.6783 17.9502 13.5511 17.8975 13.4574 17.8038C13.3636 17.71 13.3109 17.5828 13.3109 17.4502C13.3109 17.3176 13.3636 17.1904 13.4574 17.0967C13.5511 17.0029 13.6783 16.9502 13.8109 16.9502C16.0109 16.9502 18.2109 16.9822 20.4109 16.9502C21.5179 16.9342 21.9999 16.1022 21.9999 15.1122V2.64921C22.0076 2.33448 21.9191 2.02489 21.7461 1.76184C21.5731 1.49879 21.3239 1.29482 21.0319 1.17721C20.6867 1.08299 20.3274 1.05082 19.9709 1.08221H13.8109C13.6783 1.08221 13.5511 1.02953 13.4574 0.935765C13.3636 0.841997 13.3109 0.71482 13.3109 0.582211C13.3109 0.449603 13.3636 0.322426 13.4574 0.228658C13.5511 0.13489 13.6783 0.0822114 13.8109 0.0822114C16.0349 0.0822114 18.2759 -0.00278863 20.4979 0.0822114C20.8382 0.090817 21.1733 0.167009 21.4839 0.306355C21.7944 0.4457 22.0742 0.645417 22.3068 0.893882C22.5395 1.14235 22.7204 1.4346 22.839 1.75363C22.9577 2.07267 23.0117 2.41211 22.9979 2.75221L22.9999 15.4502Z" fill="white"/>
</svg>
